<svg width="512" height="512" viewBox="0 0 512 512" xmlns="http://www.w3.org/2000/svg">
  <!-- Fondo degradado -->
  <defs>
    <linearGradient id="bgGradient" x1="0%" y1="0%" x2="100%" y2="100%">
      <stop offset="0%" style="stop-color:#667eea;stop-opacity:1" />
      <stop offset="100%" style="stop-color:#764ba2;stop-opacity:1" />
    </linearGradient>
    <linearGradient id="houseGradient" x1="0%" y1="0%" x2="100%" y2="100%">
      <stop offset="0%" style="stop-color:#ffffff;stop-opacity:1" />
      <stop offset="100%" style="stop-color:#f8fafc;stop-opacity:1" />
    </linearGradient>
  </defs>
  
  <!-- Fondo -->
  <rect width="512" height="512" rx="80" fill="url(#bgGradient)"/>
  
  <!-- Casa principal -->
  <g transform="translate(256, 256)">
    <!-- Techo -->
    <path d="M-80,-60 L0,-120 L80,-60 L80,40 L-80,40 Z" fill="url(#houseGradient)" stroke="#e5e7eb" stroke-width="2"/>
    
    <!-- Paredes -->
    <rect x="-80" y="40" width="160" height="80" fill="url(#houseGradient)" stroke="#e5e7eb" stroke-width="2"/>
    
    <!-- Puerta -->
    <rect x="-20" y="60" width="40" height="60" fill="#667eea" rx="4"/>
    <circle cx="-5" cy="90" r="3" fill="url(#houseGradient)"/>
    
    <!-- Ventanas -->
    <rect x="-60" y="50" width="25" height="25" fill="#667eea" rx="2"/>
    <rect x="35" y="50" width="25" height="25" fill="#667eea" rx="2"/>
    
    <!-- Marco de ventanas -->
    <rect x="-60" y="50" width="25" height="25" fill="none" stroke="url(#houseGradient)" stroke-width="1"/>
    <rect x="35" y="50" width="25" height="25" fill="none" stroke="url(#houseGradient)" stroke-width="1"/>
    
    <!-- Cruz en ventanas -->
    <line x1="-47.5" y1="50" x2="-47.5" y2="75" stroke="url(#houseGradient)" stroke-width="1"/>
    <line x1="-60" y1="62.5" x2="-35" y2="62.5" stroke="url(#houseGradient)" stroke-width="1"/>
    <line x1="47.5" y1="50" x2="47.5" y2="75" stroke="url(#houseGradient)" stroke-width="1"/>
    <line x1="35" y1="62.5" x2="60" y2="62.5" stroke="url(#houseGradient)" stroke-width="1"/>
  </g>
  
  <!-- Olas del mar -->
  <g transform="translate(0, 400)">
    <path d="M0,50 Q50,30 100,50 T200,50 T300,50 T400,50 T500,50 L512,50 L512,112 L0,112 Z" fill="rgba(255,255,255,0.3)"/>
    <path d="M0,60 Q50,40 100,60 T200,60 T300,60 T400,60 T500,60 L512,60 L512,112 L0,112 Z" fill="rgba(255,255,255,0.2)"/>
  </g>
  
  <!-- Sol -->
  <circle cx="420" cy="100" r="30" fill="#fbbf24" opacity="0.9"/>
  <g stroke="#fbbf24" stroke-width="3" opacity="0.7">
    <line x1="420" y1="50" x2="420" y2="40"/>
    <line x1="420" y1="160" x2="420" y2="170"/>
    <line x1="370" y1="100" x2="360" y2="100"/>
    <line x1="480" y1="100" x2="490" y2="100"/>
    <line x1="385" y1="55" x2="378" y2="48"/>
    <line x1="455" y1="55" x2="462" y2="48"/>
    <line x1="385" y1="145" x2="378" y2="152"/>
    <line x1="455" y1="145" x2="462" y2="152"/>
  </g>
  
  <!-- Texto "CA" -->
  <text x="256" y="350" font-family="Arial, sans-serif" font-size="48" font-weight="bold" text-anchor="middle" fill="url(#houseGradient)">CA</text>
</svg>
