<svg width="512" height="512" viewBox="0 0 512 512" xmlns="http://www.w3.org/2000/svg">
  <defs>
    <linearGradient id="bgGradient" x1="0%" y1="0%" x2="100%" y2="100%">
      <stop offset="0%" style="stop-color:#667eea;stop-opacity:1" />
      <stop offset="100%" style="stop-color:#764ba2;stop-opacity:1" />
    </linearGradient>
    <linearGradient id="houseGradient" x1="0%" y1="0%" x2="100%" y2="100%">
      <stop offset="0%" style="stop-color:#ffffff;stop-opacity:1" />
      <stop offset="100%" style="stop-color:#f8fafc;stop-opacity:1" />
    </linearGradient>
  </defs>
  
  <rect width="512" height="512" rx="76.8" fill="url(#bgGradient)"/>
  
  <g transform="translate(256, 256)">
    <path d="M-76.8,-61.44 L0,-122.88 L76.8,-61.44 L76.8,40.96 L-76.8,40.96 Z" fill="url(#houseGradient)" stroke="#e5e7eb" stroke-width="2.048"/>
    <rect x="-76.8" y="40.96" width="153.6" height="81.92" fill="url(#houseGradient)" stroke="#e5e7eb" stroke-width="2.048"/>
    <rect x="-20.48" y="61.44" width="40.96" height="61.44" fill="#667eea" rx="4.096"/>
    <circle cx="-5.12" cy="92.16" r="3.072" fill="url(#houseGradient)"/>
    <rect x="-61.44" y="51.2" width="25.6" height="25.6" fill="#667eea" rx="2.048"/>
    <rect x="35.84" y="51.2" width="25.6" height="25.6" fill="#667eea" rx="2.048"/>
    <rect x="-61.44" y="51.2" width="25.6" height="25.6" fill="none" stroke="url(#houseGradient)" stroke-width="1.024"/>
    <rect x="35.84" y="51.2" width="25.6" height="25.6" fill="none" stroke="url(#houseGradient)" stroke-width="1.024"/>
  </g>
  
  <g transform="translate(0, 399.36)">
    <path d="M0,51.2 Q51.2,30.72 102.4,51.2 T204.8,51.2 T307.2,51.2 T409.6,51.2 T512,51.2 L512,112.64 L0,112.64 Z" fill="rgba(255,255,255,0.3)"/>
  </g>
  
  <circle cx="419.84" cy="102.4" r="30.72" fill="#fbbf24" opacity="0.9"/>
  
  <text x="256" y="358.4" font-family="Arial, sans-serif" font-size="61.44" font-weight="bold" text-anchor="middle" fill="url(#houseGradient)">CA</text>
</svg>