<svg width="72" height="72" viewBox="0 0 72 72" xmlns="http://www.w3.org/2000/svg">
  <defs>
    <linearGradient id="bgGradient" x1="0%" y1="0%" x2="100%" y2="100%">
      <stop offset="0%" style="stop-color:#667eea;stop-opacity:1" />
      <stop offset="100%" style="stop-color:#764ba2;stop-opacity:1" />
    </linearGradient>
    <linearGradient id="houseGradient" x1="0%" y1="0%" x2="100%" y2="100%">
      <stop offset="0%" style="stop-color:#ffffff;stop-opacity:1" />
      <stop offset="100%" style="stop-color:#f8fafc;stop-opacity:1" />
    </linearGradient>
  </defs>
  
  <rect width="72" height="72" rx="10.799999999999999" fill="url(#bgGradient)"/>
  
  <g transform="translate(36, 36)">
    <path d="M-10.799999999999999,-8.64 L0,-17.28 L10.799999999999999,-8.64 L10.799999999999999,5.76 L-10.799999999999999,5.76 Z" fill="url(#houseGradient)" stroke="#e5e7eb" stroke-width="0.28800000000000003"/>
    <rect x="-10.799999999999999" y="5.76" width="21.599999999999998" height="11.52" fill="url(#houseGradient)" stroke="#e5e7eb" stroke-width="0.28800000000000003"/>
    <rect x="-2.88" y="8.64" width="5.76" height="8.64" fill="#667eea" rx="0.5760000000000001"/>
    <circle cx="-0.72" cy="12.959999999999999" r="0.432" fill="url(#houseGradient)"/>
    <rect x="-8.64" y="7.2" width="3.6" height="3.6" fill="#667eea" rx="0.28800000000000003"/>
    <rect x="5.040000000000001" y="7.2" width="3.6" height="3.6" fill="#667eea" rx="0.28800000000000003"/>
    <rect x="-8.64" y="7.2" width="3.6" height="3.6" fill="none" stroke="url(#houseGradient)" stroke-width="0.14400000000000002"/>
    <rect x="5.040000000000001" y="7.2" width="3.6" height="3.6" fill="none" stroke="url(#houseGradient)" stroke-width="0.14400000000000002"/>
  </g>
  
  <g transform="translate(0, 56.160000000000004)">
    <path d="M0,7.2 Q7.2,4.32 14.4,7.2 T28.8,7.2 T43.199999999999996,7.2 T57.6,7.2 T72,7.2 L72,15.84 L0,15.84 Z" fill="rgba(255,255,255,0.3)"/>
  </g>
  
  <circle cx="59.04" cy="14.4" r="4.32" fill="#fbbf24" opacity="0.9"/>
  
  <text x="36" y="50.4" font-family="Arial, sans-serif" font-size="8.64" font-weight="bold" text-anchor="middle" fill="url(#houseGradient)">CA</text>
</svg>