<svg width="384" height="384" viewBox="0 0 384 384" xmlns="http://www.w3.org/2000/svg">
  <defs>
    <linearGradient id="bgGradient" x1="0%" y1="0%" x2="100%" y2="100%">
      <stop offset="0%" style="stop-color:#667eea;stop-opacity:1" />
      <stop offset="100%" style="stop-color:#764ba2;stop-opacity:1" />
    </linearGradient>
    <linearGradient id="houseGradient" x1="0%" y1="0%" x2="100%" y2="100%">
      <stop offset="0%" style="stop-color:#ffffff;stop-opacity:1" />
      <stop offset="100%" style="stop-color:#f8fafc;stop-opacity:1" />
    </linearGradient>
  </defs>
  
  <rect width="384" height="384" rx="57.599999999999994" fill="url(#bgGradient)"/>
  
  <g transform="translate(192, 192)">
    <path d="M-57.599999999999994,-46.08 L0,-92.16 L57.599999999999994,-46.08 L57.599999999999994,30.72 L-57.599999999999994,30.72 Z" fill="url(#houseGradient)" stroke="#e5e7eb" stroke-width="1.536"/>
    <rect x="-57.599999999999994" y="30.72" width="115.19999999999999" height="61.44" fill="url(#houseGradient)" stroke="#e5e7eb" stroke-width="1.536"/>
    <rect x="-15.36" y="46.08" width="30.72" height="46.08" fill="#667eea" rx="3.072"/>
    <circle cx="-3.84" cy="69.12" r="2.3040000000000003" fill="url(#houseGradient)"/>
    <rect x="-46.08" y="38.400000000000006" width="19.200000000000003" height="19.200000000000003" fill="#667eea" rx="1.536"/>
    <rect x="26.880000000000003" y="38.400000000000006" width="19.200000000000003" height="19.200000000000003" fill="#667eea" rx="1.536"/>
    <rect x="-46.08" y="38.400000000000006" width="19.200000000000003" height="19.200000000000003" fill="none" stroke="url(#houseGradient)" stroke-width="0.768"/>
    <rect x="26.880000000000003" y="38.400000000000006" width="19.200000000000003" height="19.200000000000003" fill="none" stroke="url(#houseGradient)" stroke-width="0.768"/>
  </g>
  
  <g transform="translate(0, 299.52)">
    <path d="M0,38.400000000000006 Q38.400000000000006,23.04 76.80000000000001,38.400000000000006 T153.60000000000002,38.400000000000006 T230.39999999999998,38.400000000000006 T307.20000000000005,38.400000000000006 T384,38.400000000000006 L384,84.48 L0,84.48 Z" fill="rgba(255,255,255,0.3)"/>
  </g>
  
  <circle cx="314.88" cy="76.80000000000001" r="23.04" fill="#fbbf24" opacity="0.9"/>
  
  <text x="192" y="268.79999999999995" font-family="Arial, sans-serif" font-size="46.08" font-weight="bold" text-anchor="middle" fill="url(#houseGradient)">CA</text>
</svg>