<svg width="152" height="152" viewBox="0 0 152 152" xmlns="http://www.w3.org/2000/svg">
  <defs>
    <linearGradient id="bgGradient" x1="0%" y1="0%" x2="100%" y2="100%">
      <stop offset="0%" style="stop-color:#667eea;stop-opacity:1" />
      <stop offset="100%" style="stop-color:#764ba2;stop-opacity:1" />
    </linearGradient>
    <linearGradient id="houseGradient" x1="0%" y1="0%" x2="100%" y2="100%">
      <stop offset="0%" style="stop-color:#ffffff;stop-opacity:1" />
      <stop offset="100%" style="stop-color:#f8fafc;stop-opacity:1" />
    </linearGradient>
  </defs>
  
  <rect width="152" height="152" rx="22.8" fill="url(#bgGradient)"/>
  
  <g transform="translate(76, 76)">
    <path d="M-22.8,-18.24 L0,-36.48 L22.8,-18.24 L22.8,12.16 L-22.8,12.16 Z" fill="url(#houseGradient)" stroke="#e5e7eb" stroke-width="0.608"/>
    <rect x="-22.8" y="12.16" width="45.6" height="24.32" fill="url(#houseGradient)" stroke="#e5e7eb" stroke-width="0.608"/>
    <rect x="-6.08" y="18.24" width="12.16" height="18.24" fill="#667eea" rx="1.216"/>
    <circle cx="-1.52" cy="27.36" r="0.912" fill="url(#houseGradient)"/>
    <rect x="-18.24" y="15.200000000000001" width="7.6000000000000005" height="7.6000000000000005" fill="#667eea" rx="0.608"/>
    <rect x="10.64" y="15.200000000000001" width="7.6000000000000005" height="7.6000000000000005" fill="#667eea" rx="0.608"/>
    <rect x="-18.24" y="15.200000000000001" width="7.6000000000000005" height="7.6000000000000005" fill="none" stroke="url(#houseGradient)" stroke-width="0.304"/>
    <rect x="10.64" y="15.200000000000001" width="7.6000000000000005" height="7.6000000000000005" fill="none" stroke="url(#houseGradient)" stroke-width="0.304"/>
  </g>
  
  <g transform="translate(0, 118.56)">
    <path d="M0,15.200000000000001 Q15.200000000000001,9.12 30.400000000000002,15.200000000000001 T60.800000000000004,15.200000000000001 T91.2,15.200000000000001 T121.60000000000001,15.200000000000001 T152,15.200000000000001 L152,33.44 L0,33.44 Z" fill="rgba(255,255,255,0.3)"/>
  </g>
  
  <circle cx="124.63999999999999" cy="30.400000000000002" r="9.12" fill="#fbbf24" opacity="0.9"/>
  
  <text x="76" y="106.39999999999999" font-family="Arial, sans-serif" font-size="18.24" font-weight="bold" text-anchor="middle" fill="url(#houseGradient)">CA</text>
</svg>