<svg width="192" height="192" viewBox="0 0 192 192" xmlns="http://www.w3.org/2000/svg">
  <defs>
    <linearGradient id="bgGradient" x1="0%" y1="0%" x2="100%" y2="100%">
      <stop offset="0%" style="stop-color:#667eea;stop-opacity:1" />
      <stop offset="100%" style="stop-color:#764ba2;stop-opacity:1" />
    </linearGradient>
    <linearGradient id="houseGradient" x1="0%" y1="0%" x2="100%" y2="100%">
      <stop offset="0%" style="stop-color:#ffffff;stop-opacity:1" />
      <stop offset="100%" style="stop-color:#f8fafc;stop-opacity:1" />
    </linearGradient>
  </defs>
  
  <rect width="192" height="192" rx="28.799999999999997" fill="url(#bgGradient)"/>
  
  <g transform="translate(96, 96)">
    <path d="M-28.799999999999997,-23.04 L0,-46.08 L28.799999999999997,-23.04 L28.799999999999997,15.36 L-28.799999999999997,15.36 Z" fill="url(#houseGradient)" stroke="#e5e7eb" stroke-width="0.768"/>
    <rect x="-28.799999999999997" y="15.36" width="57.599999999999994" height="30.72" fill="url(#houseGradient)" stroke="#e5e7eb" stroke-width="0.768"/>
    <rect x="-7.68" y="23.04" width="15.36" height="23.04" fill="#667eea" rx="1.536"/>
    <circle cx="-1.92" cy="34.56" r="1.1520000000000001" fill="url(#houseGradient)"/>
    <rect x="-23.04" y="19.200000000000003" width="9.600000000000001" height="9.600000000000001" fill="#667eea" rx="0.768"/>
    <rect x="13.440000000000001" y="19.200000000000003" width="9.600000000000001" height="9.600000000000001" fill="#667eea" rx="0.768"/>
    <rect x="-23.04" y="19.200000000000003" width="9.600000000000001" height="9.600000000000001" fill="none" stroke="url(#houseGradient)" stroke-width="0.384"/>
    <rect x="13.440000000000001" y="19.200000000000003" width="9.600000000000001" height="9.600000000000001" fill="none" stroke="url(#houseGradient)" stroke-width="0.384"/>
  </g>
  
  <g transform="translate(0, 149.76)">
    <path d="M0,19.200000000000003 Q19.200000000000003,11.52 38.400000000000006,19.200000000000003 T76.80000000000001,19.200000000000003 T115.19999999999999,19.200000000000003 T153.60000000000002,19.200000000000003 T192,19.200000000000003 L192,42.24 L0,42.24 Z" fill="rgba(255,255,255,0.3)"/>
  </g>
  
  <circle cx="157.44" cy="38.400000000000006" r="11.52" fill="#fbbf24" opacity="0.9"/>
  
  <text x="96" y="134.39999999999998" font-family="Arial, sans-serif" font-size="23.04" font-weight="bold" text-anchor="middle" fill="url(#houseGradient)">CA</text>
</svg>